<?xml version="1.0" encoding="UTF-8"?><svg id="Layer_2" xmlns="http://www.w3.org/2000/svg" viewBox="0 0 381.91 36.26"><defs><style>.cls-1{fill:none;}</style></defs><g id="Layer_1-2"><path class="cls-1" d="M29.75,10.47c-.16.62-.86.3-1.33.47-1.01.37-2.1.86-2.97,1.45l-1.25.83c-1.09.73-1.61,1.91-2.17,3.14-.16.34.04.84-.45,1.08l.03,5.39c.6.65.11,1.1.99,2.25l.92,1.21.98.7c.75.54,1.46,1.11,2.38,1.21.34.31.71.41,1.19.4l.74.43,1.96.05c.31.53,1.8.45,2.15-.11,1.24-.05,2.5.03,3.74-.1.28-.03.64-.37,1.01-.31.34.06.71-.12,1-.27l1.38-.7c.59-.3,1.18-.96,1.56-1.5l.88-1.28c.44-.64.76-1.37,1.15-2.06l-.02-4.86c-.43-.4-.73-1.42-.88-2.01-.13-.53-.5-.98-.8-1.46-1.41-2.21-1.41-1.82-3.57-3.02l-.84-.17c-1.04-.86-1.53.24-2.02-.77h109.03c-.19.38-.6.5-1.09.45-.36-.04-.69.17-1.01.28-.39.14-.81.22-1.18.41-.75.39-1.65.64-2.3,1.17-1.45,1.18-2.44,2.28-2.98,4.02-.11.35-.2.72-.41,1v5.41c.2.32.29.91.46,1.24.61,1.21,1.71,2.5,2.81,3.37.58.46,1.33.76,2.03,1.09.43.21,1.03.13,1.51.09l.61.4h3.73s.52-.44.52-.44l2-.02.51-.35,1.99-.02.49.38,2.58-.03.88-.6c.26-.18.21-.94.3-1.23.05-.16.2-.5.2-.69l-.04-6.28c0-.5-.84-1.07-1.33-1.07l-8.09-.04c-.25.17-.55.34-.83.48-.15.13-.38.38-.56.61s-.05.83.2,1.04c1.76,1.48,2.25,1.02,2.51,1.33l.93,1.1c.14.48-1.48,1.11-1.69,1.14-.7.07-1.56.15-2.17-.06l-1.16-.4c-2.17-1.85-1.61-1.32-2.43-3.14-.2-.45-.18-1.4-.01-1.87l.46-1.31c1.91-2.21,2.27-2.57,5.2-2.3.69.06.81,1.87,1.56,1.88l6.71.02c.19,0,.51-.2.62-.34.12-.16.16-.65.07-.84-1.19-2.3-1.37-3.08-3.61-4.18-.56-.27-1.12-.59-1.67-.78l-1.27-.44c-1.05-.36-2.53.26-2.77-.48h57.82c-.28.71-1.21.34-1.54.5-2.43,1.16-2.58.99-4.28,2.91-.78.88-.44,1.71-1.08,2.41-.01.17.22.48.38.7l.11.83c.84,1.26.72,2.21,2.36,2.9.47.2,1.03.59,1.51.69.52.11,1-.08,1.34.4h3.34s.54.45.54.45l2.71.04c.32,0,.88.36,1.08.57.27.27.32,1.08.01,1.32-.29.22-.77.46-1.09.6-1.19-.08-2.44.24-3.53-.13l-1.23-.41c-.81-.27-1.54-.76-2.33-1.12l-1.89-.03-.59-.37c-.27.24-.56.41-.83.4-.78-.02-1.04.54-1.02,1.18.01.7.05,1.34.49,1.96.77,1.09,2.02,1.83,3.3,2.25l1.08.35c.41.14.92.11,1.23.53h6.86c.81-1.01,1.34.12,2.05-.85l.95-.1,1.67-.87c.49-.26,1.08-.86,1.35-1.33l.46-.81c.05-1.15.05-2.3.03-3.52-.01-.66-1.48-2.22-1.78-2.38-4.19-2.25-2.09-.87-4.32-1.78-.88-.36-2,.04-2.96-.17l-.47-.4-1.71-.04-1.02-1.02c.81-.84,2.67-1.55,3.61-.63.27.07.78.06,1.16.05,2.02,1.83,2.23.81,3.48,1.62.3.03.89.11,1.23.06.64-.09,1.34-.49,1.8-.95.58-.59-.24-2.65-1.37-3.18-.45-.22-.74-.39-1.14-.72-.24-.2-.73-.33-1.02-.52-.43-.29-.85-.57-1.38-.52-.46.04-.79-.29-1.18-.39-1.32-.32-3.24.25-3.13-.47h73.17v19.32H0v-5.25c.68.51.23,1.36.44,2.71.05.32.37.94.6,1.15.18.16.65.42.88.55h2.5s.93-.51.93-.51c.51-.29.72-.67.63-1.28l.42-.66c-.01-.53-.05-1.23.03-1.72.55-.58,1.08-1.11,1.65-1.63h2.3s.69.64.69.64c.63.2.99.54,1.28,1.14.19.41.69.68.94,1.09l.57.96.93,1.01c2.96,1.29,1.3.95,4.76.92.68,0,.92-.85.82-1.39-.14-.85-.74-1.38-1.14-2.06-.5-.85-.93-1.73-1.35-2.63-.29-.61.11-1.32.37-1.85l.88-1.81c.2-.41.38-.76.38-1.25l.39-.56v-2.62c0-.24-.26-.71-.42-.86l-2.17-2.14c-.19-.07-.45-.15-.62-.23-1.46-.62-.98.2-2.08-.59H2.4s-1.01.53-1.01.53l-1,1.99v6.22c0,.3-.16.57-.38.7v-9.9h29.75ZM60.79,29.42c.34-.5.77-.39,1.18-.53l1.11-.37c.69-.23,1.53-.78,2-1.38s.71-1.33,1.01-1.98v-2.89c-1.13-2.51-1.44-1.77-1.29-4.72l.43-.67v-2.8s-.73-.81-.73-.81c-.18-.48-.32-.84-.77-1.04-.48-.21-.89-.56-1.34-.82-.35-.2-.9-.11-1.24-.48h-13.49c-1.5,1.03-1.33.27-2.02,1.41-.8,1.33.22,1.54-.77,2.59v8.36c.15.17.45.49.45.7l.02,2.46c0,.36.38.78.6,1.04l1.23,1.44,1.24.05c.89.55,1.96.57,2.82-.03h5.46c.21.01.54.33.71.44l3.39.02ZM75.27,22.66l5.34-.02.6-.38c.51-.03,1.07.06,1.56-.05.71-.16,1.51-.76,1.82-1.43.15-.31.16-1.12,0-1.43-.23-.46-.6-.94-.91-1.35l-2.12-.02-.51-.35-5.55-.02-.79-.79.79-1.23,2.58-.02.48.39h1.92s.7-.41.7-.41c.79-.05,1.69.17,2.39-.1.98-.39,1.97-2.58,1.47-3.1l-1.38-1.42h-13.95c-2.05,1.16-.75.13-1.97,1.97v11.98c0,.17.34.48.39.63.22.76-.49,1.61,1.44,3.43l.9.08c.44.57,1.2.53,1.72.06h3.83s.49.35.49.35l4.51-.02.64-.44c1.14-.06,1.89.26,2.82-.56.58-.52.79-1.54.61-2.29-.22-.89-1.28-1.33-2.03-1.79l-7.86-.02c-.31-.04-.71-.66-.66-.94.04-.23.46-.71.71-.71ZM99.24,24.57c.32.43.57.83.84,1.24l.96,1.46c.55.85,1.27,1.24,2.12,1.68h3.37c.4-.31.9-.87,1.12-1.24-.66-.8-.59-1.18-1.25-2.12-.99-1.41-1.58-1.1-1.29-3.97.33-.43.86-.8,1.09-1.31.25-.55.78-1.17.86-1.76.14-1.2.07-2.43.03-3.62-.14-.22-.33-.7-.48-.89-1.61-2.01-2.56-2.27-5.03-3.11h-11.62c-.38.33-.8.36-1.28.46-.26.13-.53.66-.7.94-.97,1.59.17,1.68-.76,2.59v10.42c1.01,1.06-.07,1.25.76,2.72.13.22.28.68.49.77l1.17.53c1.54.29,2.6-.26,3.54-1.47,0-.73-.04-1.44.07-2.09.95-1.27-.68-1.37,1.36-3.08l2.51.02c.29.19.64.4.96.53.55.23.78.83,1.13,1.31ZM120.67,28.09l.02-3.87.45-.57.02-6.22.65-1.08c.1-.17.44-.46.63-.39.49.16.74-.32,1.07-.38.94-.17,1.94-.02,2.92-.12.67-.54.95-.24,1.37-1.43.25-.72.02-1.73-.59-2.16-.25-.18-.58-.36-.84-.5l-.82-.45h-15.64s-1.06.58-1.06.58c-.79.44-.13.59-.7,1.7.77,2.18-.23,1.12,1.8,2.32l3.19.02,1.15.57c.31.15.5.55.5.9v9.25c.41.3.35.67.4,1.15.21.32.75.9,1.07,1.09,2.07.49,2.38.97,4.41-.42ZM197.23,28.1c.1-.33.19-1.09.04-1.37l-1.97-3.87c-.04-.55-.26-.99-.42-1.48-.19-.61-.38-1.13-.69-1.69l-.46-.85-.76-1.45c-.69-1.33.2-.25-1.18-2.83-1.1-2.06-.91-2.54-3.12-3.6l-4.33-.02c-.93.47-1.67,1.16-2.21,2.02s-1.1,1.65-1.55,2.58l-.93,1.93c-.21.44-.23.98-.56,1.37s-.29.94-.47,1.36c-.16.37-.34.76-.52,1.11l-1.58,3.19c-.24.49-.67.77-1.09.78-.61.01-.86-.18-1.31-.6-.34-.32-1.12-.79-1.64-.79l-6.56-.03-1.1-.86c-.06-.58-.14-1.01-.49-1.43v-6.19s.36-.51.36-.51c0-.45.02-1.08-.02-1.5l-.91-1.89c-.25-.12-.74-.43-1.01-.48-.57-.12-1.32-.12-1.92-.01-.7.13-1.72.76-1.94,1.43l-.45,1.34c-.23.67-.13,1.7-.05,2.38.6.47.52,2.08.04,2.59l.02,7.6c.79,1.12-.28.75,1.38,2.75h7.52s.64.32.64.32h1.98s.58-.42.58-.42h4.63c.21.02.56.35.74.39,2.11.46,1.73-.5,2.78-.38.87.09,2.5-.91,2.67-2.01l.84-.83,1.26-.07.65-.42c1.23,0,2.42-.03,3.62.06.31.02.6.55,1.04.41.38-.12.8.16,1.11.25.72.22.92.62,1.23,1.23.37.71,1.41.87,2.12,1.1.13.04.45.25.59.25,1.93.04,1.79.24,3.37-.84ZM227.3,24.63c.2-.06.56-.32.83-.32l5.9-.04c.24,0,.58-.48.96-.37.5.14,1-.17,1.44-.46l1.33-.87c1.02-1.64.97-.8,1.9-2.78-.03-1.49.1-3.09-.09-4.46-.11-.27-.26-.87-.33-1.16-.61-.82-1.47-1.65-2.26-2.3-1.23-1.02-2.3-.17-2.98-.93h-11.84s-1.01.52-1.01.52c-.26.13-.68.57-.86.85-.31.49.33,1.41-.49,2.18l-.03,4.62c.11.13.41.44.46.59v7.68c.14.36.37.84.58,1.09.95.64,1.9.56,3.25.46.33-.02.95-.35,1.11-.62.15-.24.4-.68.48-.91l.33-1.19c.23-.83.35-1.31,1.31-1.58ZM256.43,22.23c.36-.36.83-.53,1.37-.41l.97-1.65c-.32-1.15-1.1-1.71-2.15-2.17l-3.16-.02-.49-.36-3.96-.03c-.74,0-1.1-1.09-.72-1.61l1.68-.04.6-.4h1.93s.62.39.62.39l1.89.02.62-.44h1.32s1.67-1.7,1.67-1.7c.17-.32.17-1.13.01-1.45-.35-.71-1.11-1.08-1.88-1.43h-13.11s-.89.52-.89.52c-.29.17-.71.64-.92.91.02.53-.02.93-.47,1.25v13.04c.41.35.49.69.47,1.26l.99,1.06h10.1s.55.44.55.44h2.48c1.05-1.14,1.98.75,3.2-2.61-1.95-3.5-1.96-1.13-3.21-2.46l-6.73-.04c-.26-.2-.65-.42-.85-.52-.13-.06-.24-.35-.18-.45.04-.08.19-.29.28-.34l1.38-.74,6.6-.02ZM276.87,28.98l2.34-.06c.93-.44,1.34-.58,1.47-1.75-.36-.72-.74-1.53-1.19-2.15-.56-.78-.93-1.41-.87-2.41.04-.63.16-1.18.56-1.71.5-.67.88-1.37,1.25-2.12.6-1.24.46-2.43.03-3.67-.38-1.07-.76-2.13-1.87-2.58-.51-.2-1.03-.54-1.53-.69-2.29-.72-.44-.52-3.57-.55l-.63-.35h-9.66c-1.63,1.01-1.41.56-2.32,2.4v14.07s.73,1.45.73,1.45l1.07.21c.55.48,1.27.52,1.78-.02,1.29-.13,1.84-.44,2.25-1.66.2-.6-.13-1.42.15-1.93.24-.45.41-.72.38-1.3l1-1.04h2.86s1.11.54,1.11.54c.43.21.43.79.64,1.01.71.72,1.22,1.33,1.6,2.29s1.45,1.6,2.42,2.02Z"/><path d="M0,24.54v-4.17c.23-.13.39-.4.39-.7v-6.22s1-1.99,1-1.99l1.01-.54h12.22c1.1.8.61-.01,2.08.6.17.07.43.16.62.23l2.17,2.14c.16.16.42.63.42.86v2.62s-.38.56-.38.56c0,.5-.18.84-.38,1.25l-.88,1.81c-.26.53-.66,1.24-.37,1.85.42.89.85,1.78,1.35,2.63.4.67.99,1.2,1.14,2.06.09.54-.14,1.38-.82,1.39-3.46.03-1.8.36-4.76-.92l-.93-1.01-.57-.96c-.25-.42-.75-.69-.94-1.09-.28-.6-.64-.94-1.28-1.14l-.69-.65h-2.3c-.57.52-1.1,1.06-1.65,1.64-.08.49-.04,1.2-.03,1.72l-.42.66c.09.61-.12.99-.63,1.28l-.93.51H1.93c-.24-.14-.7-.4-.88-.56-.23-.2-.55-.83-.6-1.15-.21-1.35.23-2.2-.44-2.71ZM12.26,18.45c.38,0,1.01-.45,1.22-.69v-1.51c-.14-.33-.95-.69-1.36-.69h-3.7s-1.05.92-1.05.92c-.42.37-.1,1.15.3,1.37l1.12.61h3.49Z"/><path d="M146.82,10.47c.24.75,1.72.13,2.77.48l1.27.44c.55.19,1.12.51,1.67.78,2.23,1.1,2.42,1.87,3.61,4.18.1.19.05.68-.07.84-.11.14-.42.34-.62.34l-6.71-.02c-.75,0-.86-1.81-1.56-1.88-2.94-.27-3.29.1-5.2,2.3l-.46,1.31c-.16.47-.19,1.43.01,1.87.82,1.82.27,1.3,2.43,3.14l1.16.4c.61.21,1.46.14,2.17.06.21-.02,1.83-.65,1.69-1.14l-.93-1.1c-.26-.31-.76.16-2.51-1.33-.25-.21-.39-.8-.2-1.04s.41-.48.56-.61c.28-.14.58-.31.83-.48l8.09.04c.49,0,1.33.57,1.33,1.07l.04,6.28c0,.19-.15.52-.2.69-.09.3-.04,1.06-.3,1.23l-.88.6-2.58.03-.49-.38-1.99.02-.51.35-2,.02-.52.44h-3.73s-.61-.4-.61-.4c-.48.03-1.08.12-1.51-.09-.69-.34-1.44-.63-2.03-1.09-1.1-.87-2.2-2.17-2.81-3.37-.16-.33-.25-.92-.46-1.24v-5.41c.22-.28.31-.65.42-1,.53-1.75,1.53-2.84,2.98-4.02.65-.53,1.55-.78,2.3-1.17.37-.19.8-.28,1.18-.41.31-.11.64-.32,1.01-.28.5.05.9-.07,1.09-.45h2.28Z"/><path d="M207.87,10.47c-.11.72,1.82.15,3.13.47.39.09.72.43,1.18.39.53-.05.95.23,1.38.52.28.19.78.32,1.02.52.4.34.69.51,1.14.72,1.13.53,1.94,2.59,1.37,3.18-.46.47-1.16.86-1.8.95-.33.05-.93-.03-1.23-.06-1.26-.8-1.46.21-3.48-1.62-.37.01-.89.02-1.16-.05-.95-.93-2.8-.21-3.61.63l1.02,1.02,1.71.04.47.4c.97.2,2.08-.19,2.96.17,2.24.91.14-.48,4.32,1.78.29.16,1.77,1.72,1.78,2.38.02,1.22.02,2.38-.03,3.52l-.46.81c-.27.48-.86,1.08-1.35,1.33l-1.67.87-.95.1c-.71.97-1.24-.16-2.05.85h-6.86c-.31-.42-.81-.39-1.23-.53l-1.08-.35c-1.28-.42-2.53-1.16-3.3-2.25-.44-.62-.48-1.26-.49-1.96-.01-.64.24-1.2,1.02-1.18.27,0,.56-.17.83-.4l.59.37,1.89.03c.79.35,1.52.85,2.33,1.12l1.23.41c1.09.37,2.34.05,3.53.13.33-.14.81-.37,1.09-.6.31-.24.26-1.05-.01-1.32-.21-.21-.77-.57-1.08-.57l-2.71-.04-.54-.44h-3.34c-.34-.49-.82-.3-1.34-.41-.48-.1-1.04-.49-1.51-.69-1.64-.69-1.52-1.64-2.36-2.9l-.11-.83c-.15-.21-.39-.52-.38-.7.65-.7.3-1.52,1.08-2.41,1.7-1.92,1.85-1.75,4.28-2.91.33-.16,1.27.21,1.54-.5h3.24Z"/><path d="M35.5,10.47c.49,1.01.98-.08,2.02.77l.84.17c2.16,1.2,2.16.8,3.57,3.02.31.48.67.93.8,1.46.15.58.45,1.61.88,2.01l.02,4.86c-.39.69-.71,1.43-1.15,2.06l-.88,1.28c-.38.54-.96,1.2-1.56,1.5l-1.38.7c-.3.15-.66.33-1,.27-.37-.06-.73.28-1.01.31-1.25.13-2.5.05-3.74.1-.35.56-1.84.64-2.15.11l-1.96-.05-.74-.43c-.48.01-.86-.09-1.19-.4-.91-.11-1.62-.68-2.38-1.21l-.98-.7-.92-1.21c-.87-1.15-.38-1.6-.99-2.25l-.03-5.39c.49-.24.29-.74.45-1.08.56-1.23,1.08-2.41,2.17-3.14l1.25-.83c.87-.58,1.96-1.08,2.97-1.45.47-.17,1.17.15,1.33-.47h5.76ZM36.65,23.05c.43-.34.87-1.11.95-1.63.3-1.77-.05-2.7-1.01-4.17-.3-.46-.9-.98-1.29-1.26-.52-.03-.87-.1-1.23-.41l-.9-.08c-.51-.04-.83.35-1.28.39l-1.95.16-1.15.53c-1.65,2.69-1.19,2.23-1.19,5.4l1.41,1.52c.15.16.52.48.73.42.37-.11.73.32.96.34,2.64.17,4,.36,5.95-1.2Z"/><path d="M197.23,28.1c-1.58,1.08-1.44.88-3.37.84-.14,0-.45-.21-.59-.25-.71-.22-1.75-.39-2.12-1.1-.32-.61-.51-1.01-1.23-1.23-.31-.1-.73-.38-1.11-.25-.44.14-.73-.39-1.04-.41-1.21-.1-2.39-.06-3.62-.06l-.65.42-1.26.07-.84.83c-.17,1.1-1.8,2.11-2.67,2.01-1.05-.11-.67.84-2.78.38-.18-.04-.53-.37-.74-.37h-4.63s-.58.42-.58.42h-1.98s-.64-.32-.64-.32h-7.52c-1.66-2.01-.59-1.63-1.38-2.76l-.02-7.6c.48-.51.56-2.11-.04-2.59-.08-.69-.18-1.71.05-2.38l.45-1.34c.23-.66,1.24-1.3,1.94-1.43.6-.11,1.35-.1,1.92.01.27.05.76.36,1.01.48l.91,1.89c.04.42.03,1.05.02,1.5l-.37.51v6.19c.35.41.43.85.49,1.43l1.1.86,6.56.03c.53,0,1.3.47,1.64.79.45.42.7.61,1.31.6.42,0,.85-.29,1.09-.78l1.58-3.19c.18-.36.36-.75.52-1.11.18-.42.14-.97.47-1.36s.34-.93.56-1.37l.93-1.93c.45-.93,1.01-1.72,1.55-2.58s1.28-1.55,2.21-2.02l4.33.02c2.21,1.06,2.03,1.54,3.12,3.6,1.37,2.58.48,1.5,1.18,2.83l.76,1.45.46.85c.3.56.5,1.08.69,1.69.16.49.38.94.42,1.48l1.97,3.87c.14.28.05,1.05-.04,1.37ZM186.96,20.9l.52-.92c-.17-.45-.42-.98-.78-1.35-.24-.25-.87-.18-1.14-.01-.29.19-.5.52-.53.89-.07,1.07.83,1.84,1.29,1.85.19,0,.51-.26.62-.46Z"/><path d="M60.79,29.42l-3.39-.02c-.17-.11-.5-.43-.71-.43h-5.46c-.86.59-1.93.57-2.82.02l-1.24-.05-1.23-1.44c-.22-.26-.59-.68-.6-1.04l-.02-2.46c0-.21-.3-.53-.45-.7v-8.36c.99-1.05-.04-1.26.76-2.59.69-1.15.52-.38,2.02-1.41h13.49c.34.37.89.28,1.24.48.46.26.86.6,1.34.82.45.2.59.56.77,1.04l.72.81v2.8s-.42.67-.42.67c-.14,2.95.17,2.21,1.28,4.72v2.89c-.29.65-.54,1.39-.99,1.98s-1.3,1.14-2,1.38l-1.11.37c-.41.14-.84.04-1.18.53ZM56.2,17.65l1.6-.03.53-1.06c-.28-.33-.61-.73-.92-.89l-.89-.46c-.36-.19-1.26-.17-1.63,0-.45.21-.76.41-1.29.36-.73-.07-1.53.23-1.87.62-.09.11-.06.54.03.67l.88,1.14h2.98c.1-.07.43-.35.56-.35ZM58.61,24.69c.55-.04.74-.92.65-1.25-.35-1.17-1.36-.41-1.84-1.12-1.4-.11-2.83-.07-4.21-.04l-.95.55c-.21.12-.38.68-.43.93l.99.99c1.95-.03,3.86.07,5.8-.07Z"/><path d="M99.24,24.57c-.35-.48-.58-1.09-1.13-1.31-.32-.13-.68-.34-.96-.53l-2.51-.02c-2.04,1.71-.41,1.81-1.36,3.08-.11.66-.07,1.36-.07,2.09-.94,1.22-2,1.77-3.54,1.47l-1.17-.53c-.21-.1-.37-.55-.49-.77-.83-1.47.24-1.66-.76-2.72v-10.42c.93-.91-.22-1,.76-2.59.17-.28.45-.81.7-.94.48-.1.9-.13,1.28-.45h11.62c2.47.83,3.42,1.09,5.03,3.1.15.19.34.67.48.89.04,1.18.11,2.42-.03,3.62-.07.59-.61,1.21-.86,1.76-.23.51-.76.88-1.09,1.31-.29,2.88.29,2.56,1.29,3.97.66.94.59,1.32,1.25,2.12-.22.38-.73.93-1.12,1.25h-3.37c-.86-.44-1.57-.84-2.12-1.68l-.96-1.46c-.27-.41-.52-.81-.84-1.24ZM99.2,18.46c1-.73,1.55-.4,1.58-1.57.01-.52-.15-1.33-.87-1.32h-4.66c-.28,0-.87.37-1.06.57-.29.31-.48.86-.61,1.3.54.44,1.05.76,1.64,1.05l3.97-.03Z"/><path d="M276.87,28.98c-.97-.42-2.04-1.04-2.42-2.02s-.88-1.57-1.6-2.29c-.21-.22-.22-.81-.64-1.01l-1.11-.53h-2.86s-1,1.03-1,1.03c.03.58-.14.86-.38,1.3-.28.51.06,1.33-.15,1.93-.41,1.21-.96,1.53-2.25,1.66-.51.54-1.23.49-1.78.02l-1.07-.21-.73-1.45v-14.07c.91-1.85.7-1.39,2.32-2.4h9.66s.63.36.63.36c3.12.03,1.28-.17,3.57.55.5.16,1.02.49,1.53.69,1.12.45,1.5,1.51,1.87,2.58.43,1.23.58,2.43-.03,3.67-.37.75-.75,1.45-1.25,2.12-.39.53-.52,1.08-.56,1.71-.06,1,.3,1.63.87,2.41.45.62.83,1.43,1.19,2.15-.12,1.16-.53,1.31-1.47,1.75l-2.34.06ZM273.89,17.69c.08-1.03.27-1.78-.65-2.12h-4.55c-.36.32-.74.64-1,1.04-.26.43-.04,1.67.57,1.75,1.42.16,2.89.09,4.37.06.36,0,1.1-.42,1.26-.72Z"/><path d="M75.27,22.66c-.25,0-.67.48-.71.71-.05.28.36.9.66.94l7.86.02c.75.46,1.81.9,2.03,1.79.18.75-.02,1.77-.61,2.29-.93.82-1.68.5-2.82.56l-.64.44-4.51.02-.49-.35h-3.83c-.52.47-1.27.51-1.72-.06l-.9-.08c-1.93-1.81-1.22-2.67-1.44-3.43-.04-.15-.39-.46-.39-.63v-11.98c1.22-1.84-.09-.81,1.97-1.97h13.95s1.38,1.42,1.38,1.42c.5.52-.49,2.71-1.47,3.1-.7.28-1.6.05-2.39.1l-.7.41h-1.92s-.48-.39-.48-.39l-2.58.02-.79,1.23.79.79,5.55.02.51.35,2.12.02c.31.41.68.89.91,1.35.15.31.14,1.11,0,1.43-.32.67-1.11,1.27-1.82,1.43-.49.11-1.05.02-1.56.05l-.6.38-5.34.02Z"/><path d="M256.43,22.23l-6.6.02-1.38.74c-.09.05-.24.26-.28.34-.05.11.06.39.18.45.2.09.59.31.85.52l6.73.04c1.25,1.33,1.26-1.04,3.21,2.46-1.22,3.36-2.15,1.47-3.2,2.62h-2.48s-.55-.45-.55-.45h-10.1s-.99-1.06-.99-1.06c.02-.56-.07-.9-.47-1.26v-13.04c.46-.31.49-.71.47-1.25.21-.27.63-.74.92-.91l.89-.52h13.11c.76.34,1.53.71,1.88,1.42.16.32.16,1.13-.01,1.45l-1.67,1.7h-1.32s-.62.44-.62.44l-1.89-.02-.62-.39h-1.93s-.6.4-.6.4l-1.68.04c-.38.52-.02,1.6.72,1.61l3.96.03.49.36,3.16.02c1.05.46,1.83,1.01,2.15,2.17l-.97,1.65c-.54-.12-1.01.05-1.37.41Z"/><path d="M227.3,24.63c-.96.27-1.08.76-1.31,1.58l-.33,1.19c-.08.23-.34.67-.48.91-.17.26-.78.59-1.11.62-1.34.1-2.3.18-3.25-.46-.21-.25-.44-.74-.59-1.09v-7.68c-.05-.15-.34-.46-.46-.59l.03-4.62c.81-.77.18-1.69.49-2.18.18-.28.6-.72.86-.85l1.01-.52h11.84c.68.76,1.75-.09,2.98.93.79.66,1.65,1.48,2.26,2.3.07.29.22.88.33,1.16.19,1.38.06,2.98.09,4.46-.94,1.98-.89,1.15-1.9,2.78l-1.33.87c-.44.29-.94.6-1.44.46-.38-.11-.72.37-.96.37l-5.9.04c-.27,0-.63.26-.83.32ZM231.86,19.7c.31-.32.57-.36.87-.54.32-.19.77-.65.97-.98.13-.22.07-.85.02-1.13-.5-.55-1.23-1.43-2.08-1.45l-4.01-.05-1.44,1.45c-.33.34.03.94.23,1.25s.4.93.74.98c.55.09.94.03,1.3.48h3.4Z"/><path d="M120.67,28.09c-2.03,1.39-2.34.91-4.41.42-.33-.19-.86-.77-1.07-1.09-.06-.48.01-.85-.4-1.15v-9.25c0-.35-.19-.75-.5-.9l-1.15-.57-3.19-.02c-2.03-1.19-1.03-.14-1.8-2.32.57-1.11-.09-1.27.7-1.7l1.06-.58h15.64s.82.45.82.45c.26.14.58.33.84.5.61.42.84,1.44.59,2.16-.42,1.19-.7.89-1.37,1.43-.98.1-1.98-.06-2.92.12-.33.06-.59.54-1.07.38-.19-.06-.53.22-.63.39l-.65,1.08-.02,6.22-.45.57-.02,3.87Z"/><path class="cls-1" d="M12.26,18.45h-3.49s-1.12-.6-1.12-.6c-.4-.22-.71-1-.3-1.37l1.05-.93h3.7c.41,0,1.22.37,1.36.7v1.51c-.2.25-.83.69-1.21.69Z"/><path class="cls-1" d="M36.65,23.05c-1.94,1.56-3.3,1.37-5.95,1.2-.24-.02-.59-.44-.96-.34-.21.06-.58-.25-.73-.42l-1.41-1.52c0-3.17-.46-2.71,1.19-5.4l1.15-.53,1.95-.16c.46-.04.78-.43,1.28-.39l.9.08c.36.32.71.38,1.23.41.39.28.99.8,1.29,1.26.97,1.46,1.31,2.4,1.01,4.17-.09.52-.52,1.28-.95,1.63Z"/><path class="cls-1" d="M186.96,20.9c-.11.2-.44.47-.62.46-.47-.02-1.37-.78-1.29-1.85.03-.37.24-.7.53-.89.26-.17.9-.24,1.14.01.36.37.61.9.78,1.35l-.52.92Z"/><path class="cls-1" d="M58.61,24.69c-1.94.14-3.85.05-5.8.07l-.99-.99c.05-.25.22-.81.43-.93l.95-.55c1.38-.03,2.81-.07,4.21.04.49.7,1.49-.06,1.84,1.12.1.32-.1,1.21-.65,1.25Z"/><path class="cls-1" d="M56.2,17.65c-.13,0-.47.28-.56.35h-2.98s-.88-1.14-.88-1.14c-.09-.12-.12-.56-.03-.67.34-.4,1.13-.69,1.87-.62.53.05.84-.15,1.29-.36.37-.18,1.27-.19,1.63,0l.89.46c.31.16.64.56.92.89l-.53,1.06-1.6.03Z"/><path class="cls-1" d="M99.2,18.46l-3.97.03c-.59-.3-1.1-.61-1.64-1.05.13-.43.32-.99.61-1.3.19-.2.77-.56,1.06-.56h4.66c.72,0,.88.8.87,1.32-.03,1.16-.58.83-1.58,1.57Z"/><path class="cls-1" d="M273.89,17.69c-.16.3-.9.71-1.26.72-1.48.03-2.95.11-4.37-.06-.61-.08-.83-1.32-.57-1.75.26-.39.64-.72,1-1.05h4.55c.92.35.73,1.1.65,2.13Z"/><path class="cls-1" d="M231.86,19.7h-3.4c-.36-.43-.74-.38-1.3-.46-.34-.05-.55-.67-.74-.98s-.56-.92-.23-1.25l1.44-1.45,4.01.05c.84.01,1.58.89,2.08,1.45.05.29.11.91-.02,1.13-.2.34-.65.79-.97.98-.3.18-.56.22-.87.54Z"/><polygon points="360.44 29.92 360.44 5.59 367.1 1.23 367.1 26.49 368.87 28.3 373.01 24.17 373 4.37 379.66 0 379.67 25.27 381.91 27.56 376.88 32.54 373.03 28.7 372.98 25.16 364.31 33.77 360.44 29.92"/><polygon points="336.55 32.42 336.54 8.07 343.17 3.72 343.18 28.96 344.95 30.77 349.12 26.64 349.09 23.36 349.08 6.86 355.74 2.48 355.74 27.74 357.99 30.04 352.96 35.02 349.12 31.18 349.07 27.62 340.4 36.26 336.55 32.42"/><path d="M304.25,27.98l-3.51-3.51,12.19-12.19,3.51,3.51-12.19,12.19ZM312.85,28.08l-12.21-12.21,3.69-3.69,12.21,12.21-3.69,3.69Z"/></g></svg>